<?xml version="1.0" encoding="utf-8"?>
<svg version="1.1" x="0px" y="0px" viewBox="0 0 590 600.3" style="enable-background:new 0 0 590 600.3;" xmlns="http://www.w3.org/2000/svg">
  <style type="text/css">
	.st0{opacity:0.3;fill:url(#SVGID_1_);}
	.st1{opacity:0.3;fill:url(#SVGID_2_);}
	.st2{opacity:0.3;fill:url(#SVGID_3_);}
	.st3{fill:#A9D0E5;}
	.st4{fill:#2580D3;}
	.st5{fill:url(#SVGID_4_);}
	.st6{fill:url(#SVGID_5_);}
	.st7{fill:#FFFFFF;}
	.st8{opacity:0.2;}
	.st9{fill:url(#SVGID_6_);}
	.st10{fill:url(#SVGID_7_);}
	.st11{fill:url(#SVGID_8_);}
	.st12{fill:url(#SVGID_9_);}
	.st13{fill:url(#SVGID_10_);}
	.st14{fill:url(#SVGID_11_);}
	.st15{fill:url(#SVGID_12_);}
	.st16{fill:url(#SVGID_13_);}
	.st17{fill:url(#SVGID_14_);}
	.st18{fill:url(#SVGID_15_);}
	.st19{fill:url(#SVGID_16_);}
	.st20{fill:url(#SVGID_17_);}
	.st21{fill:url(#SVGID_18_);}
	.st22{fill:url(#SVGID_19_);}
	.st23{fill:url(#SVGID_20_);}
	.st24{fill:url(#SVGID_21_);}
	.st25{fill:url(#SVGID_22_);}
	.st26{fill:url(#SVGID_23_);}
	.st27{fill:url(#SVGID_24_);}
	.st28{fill:url(#SVGID_25_);}
	.st29{fill:url(#SVGID_26_);}
	.st30{fill:url(#SVGID_27_);}
	.st31{fill:url(#SVGID_28_);}
	.st32{fill:url(#SVGID_29_);}
	.st33{fill:url(#SVGID_30_);}
	.st34{fill:url(#SVGID_31_);}
	.st35{fill:url(#SVGID_32_);}
	.st36{fill:url(#SVGID_33_);}
	.st37{fill:url(#SVGID_34_);}
	.st38{fill:url(#SVGID_35_);}
	.st39{fill:url(#SVGID_36_);}
	.st40{fill:url(#SVGID_37_);}
	.st41{fill:url(#SVGID_38_);}
	.st42{fill:url(#SVGID_39_);}
	.st43{fill:url(#SVGID_40_);}
	.st44{fill:url(#SVGID_41_);}
	.st45{fill:url(#SVGID_42_);}
	.st46{fill:url(#SVGID_43_);}
	.st47{fill:url(#SVGID_44_);}
	.st48{fill:url(#SVGID_45_);}
	.st49{fill:url(#SVGID_46_);}
	.st50{fill:url(#SVGID_47_);}
	.st51{fill:url(#SVGID_48_);}
	.st52{fill:url(#SVGID_49_);}
	.st53{fill:url(#SVGID_50_);}
	.st54{fill:url(#SVGID_51_);}
	.st55{fill:url(#SVGID_52_);}
	.st56{fill:url(#SVGID_53_);}
	.st57{fill:url(#SVGID_54_);}
	.st58{fill:url(#SVGID_55_);}
	.st59{fill:url(#SVGID_56_);}
	.st60{fill:url(#SVGID_57_);}
	.st61{fill:url(#SVGID_58_);}
	.st62{fill:url(#SVGID_59_);}
	.st63{fill:url(#SVGID_60_);}
	.st64{fill:url(#SVGID_61_);}
	.st65{fill:url(#SVGID_62_);}
	.st66{fill:url(#SVGID_63_);}
	.st67{fill:url(#SVGID_64_);}
	.st68{fill:url(#SVGID_65_);}
	.st69{fill:url(#SVGID_66_);}
	.st70{fill:url(#SVGID_67_);}
	.st71{fill:url(#SVGID_68_);}
	.st72{fill:url(#SVGID_69_);}
	.st73{fill:url(#SVGID_70_);}
	.st74{fill:url(#SVGID_71_);}
	.st75{fill:url(#SVGID_72_);}
	.st76{fill:url(#SVGID_73_);}
	.st77{fill:url(#SVGID_74_);}
	.st78{fill:url(#SVGID_75_);}
	.st79{fill:url(#SVGID_76_);}
	.st80{fill:url(#SVGID_77_);}
	.st81{fill:url(#SVGID_78_);}
	.st82{fill:url(#SVGID_79_);}
	.st83{fill:url(#SVGID_80_);}
	.st84{fill:url(#SVGID_81_);}
	.st85{fill:url(#SVGID_82_);}
	.st86{fill:url(#SVGID_83_);}
	.st87{fill:url(#SVGID_84_);}
	.st88{fill:url(#SVGID_85_);}
	.st89{fill:url(#SVGID_86_);}
	.st90{fill:url(#SVGID_87_);}
	.st91{fill:url(#SVGID_88_);}
	.st92{fill:url(#SVGID_89_);}
	.st93{fill:url(#SVGID_90_);}
	.st94{fill:url(#SVGID_91_);}
	.st95{fill:url(#SVGID_92_);}
	.st96{opacity:0.3;fill:url(#SVGID_93_);}
	.st97{fill:url(#SVGID_94_);}
	.st98{fill:url(#SVGID_95_);}
	.st99{fill:url(#SVGID_96_);}
	.st100{fill:url(#SVGID_97_);}
	.st101{fill:#96B7DC;}
	.st102{opacity:0.5;}
	.st103{fill:#B3815C;}
	.st104{fill:#CC9A75;}
	.st105{fill:#142B69;}
	.st106{fill:#001135;}
	.st107{fill:#001250;}
	.st108{fill:#B00052;}
	.st109{fill:#970039;}
	.st110{fill:#D9A782;}
	.st111{fill:#FFCDA8;}
	.st112{fill:#6D2D10;}
	.st113{fill:#7A3A1D;}
	.st114{fill:url(#SVGID_98_);}
	.st115{fill:url(#SVGID_99_);}
	.st116{fill-rule:evenodd;clip-rule:evenodd;fill:#CDE3F5;}
	.st117{fill-rule:evenodd;clip-rule:evenodd;fill:#5EBCEA;}
	.st118{fill-rule:evenodd;clip-rule:evenodd;fill:#E1EEF5;}
	.st119{fill-rule:evenodd;clip-rule:evenodd;fill:#96C2E7;}
	.st120{fill:#96C2E7;}
	.st121{fill-rule:evenodd;clip-rule:evenodd;fill:#F0595F;}
	.st122{fill-rule:evenodd;clip-rule:evenodd;fill:#F6A5A2;}
	.st123{fill:#A83C41;}
	.st124{fill:#CDE3F5;}
	.st125{fill:#C9E5F3;}
	.st126{opacity:8.000000e-02;fill:#00467F;}
	.st127{fill:#9ED4E7;}
	.st128{fill:#DEEFF8;}
	.st129{fill:#5EA2C7;}
	.st130{fill:#88CAE0;}
	.st131{fill:#1A336B;}
	.st132{fill:#39679E;}
	.st133{fill:#FF9F1A;}
	.st134{fill:#F3F8FC;}
	.st135{fill:#A4A2A5;}
	.st136{fill:#E0E0E0;}
	.st137{fill:#C9C7C8;}
	.st138{fill:#F4F4F4;}
	.st139{fill:#BFBFBF;}
	.st140{fill:#F9F9F9;}
	.st141{fill:#EAECEF;}
	.st142{fill:#333333;}
</style>
  <g id="_x31_"/>
  <g id="_x32_">
    <g>
      <polygon class="st116" points="31.4,411.3 262.4,526.8 264,533.3 31.4,417 31.4,411.3 &#9;&#9;" style="fill: rgb(1, 86, 153);"/>
      <polyline class="st117" points="565.8,338.5 575.3,329.1 576.5,334 &#9;&#9;"/>
      <polygon class="st118" points="342.9,212.9 575.3,329.1 479.7,406 247.3,289.8 342.9,212.9 &#9;&#9;" style="fill: rgb(8, 43, 84);"/>
      <polygon class="st116" points="247.3,289.8 479.7,406 361.1,448.3 127,333.4 247.3,289.8 &#9;&#9;" style="fill: rgb(8, 43, 84);"/>
      <polygon class="st118" points="361.1 448.3 262.4 526.8 218.636 504.918 31.4 411.3 127 333.4 361.1 448.3" style="fill: rgb(8, 43, 84);"/>
      <polygon class="st119" points="479.7,406 575.3,329.1 576.5,334.1 480.9,410.9 361.1,454.3 264,533.3 262.4,526.8 361.1,448.3 &#10;&#9;&#9;&#9;479.7,406 &#9;&#9;" style="fill: rgb(1, 86, 153);"/>
      <path class="st120" d="M240.7,494.8c0.7,0.3,1.5,0.7,2.1,1.2c0.6,0.6,1,1.3,1.3,2.1c0.2,0.7,0.2,1.5,0.2,1.5 c0.2,3.8-0.1,7.6-1.1,11.3c0,0-0.2,0.7-0.5,1.2c-1.7,3.1-7.1,3.5-8.9-0.2c-0.4-0.7-0.5-1.5-0.5-2.4c0-1.3,0.5-2.5,0.7-3.8 c0.3-1.9,0.3-3.8,0.2-5.7l0.1-1.2c0.4-1.2,0.9-2.3,1.8-3.1c0.6-0.5,1.4-0.9,2.2-1C239.1,494.5,239.9,494.7,240.7,494.8 L240.7,494.8z M229.3,467c1,0.4,1.3,0.4,2.1,1.2c0.9,0.8,1.5,1.9,2.1,3c1.4,2.3,2.8,4.6,4.1,6.9c0,0,0.4,0.7,0.5,1.2 c0.9,3.5-2.9,7.4-6.7,6c-2.4-0.9-3.4-3.7-4.8-6.2c-0.9-1.5-1.8-2.9-2.7-4.3l-0.1-0.1c-0.5-1-0.7-1.2-0.8-2.3c-0.2-2,0.9-4.1,2.7-5 c1-0.5,1.3-0.4,2.4-0.5C228.5,466.9,228.9,467,229.3,467L229.3,467z M209.9,443.1c1,0.3,1.4,0.2,2.3,0.9c1.1,0.7,1.8,1.8,2.6,2.8 c1.6,1.9,3.3,3.8,4.9,5.8l0.7,1c0.3,1,0.5,1.3,0.5,2.4c-0.1,2.8-2.9,5.3-5.8,4.8c-1.4-0.2-2.5-1-3.9-2.7c-0.3-0.3-0.5-0.6-0.8-0.9 c-1.6-1.9-3.3-3.9-5-5.8l-0.7-1l-0.4-1.1c-0.1-1.1-0.3-1.4,0-2.4c0.4-1.6,1.6-2.9,3.1-3.5C208.2,443.1,209,443.1,209.9,443.1 L209.9,443.1z M189.9,420.4c0.8,0.2,1.6,0.4,2.2,0.9c0.9,0.7,1.6,1.6,2.3,2.5c1.7,2,3.4,4,5.2,5.9l0.7,1c0.1,0.4,0.3,0.7,0.4,1.1 c0.9,3.5-2.9,7.4-6.7,5.9c-1.2-0.5-2.4-1.8-3.4-3c-1.7-2-3.5-4-5.2-6l-0.1-0.1c-0.6-0.9-0.8-1.1-1.1-2.2c-0.4-2,0.4-4.2,2.1-5.3 c0.9-0.6,1.2-0.6,2.3-0.8C189.1,420.4,189.5,420.4,189.9,420.4L189.9,420.4z M173.2,396.2c0.7,0.4,1.5,0.7,2,1.3 c0.3,0.4,0.7,1,0.7,1c0,0,0,0.1,0.1,0.1c1.5,2.7,3.2,5.3,4.9,7.9c0,0,0.4,0.6,0.6,1.1c1.3,3.4-2,7.7-5.9,6.7 c-1.2-0.3-2.1-1.1-2.9-2c-0.4-0.5-0.7-1.1-1.1-1.7c-1.6-2.4-3.1-4.8-4.5-7.3l0,0c-0.4-1-0.6-1.2-0.6-2.3c0-2,1.3-4,3.2-4.8 c1-0.4,1.3-0.3,2.4-0.3C172.4,396,172.8,396.1,173.2,396.2L173.2,396.2z M430.6,385.7c0.4,0.1,0.8,0.1,1.2,0.3 c2.3,0.9,3.7,3.5,3.1,5.9c-0.4,1.6-1.6,2.9-3.1,3.5c-1,0.4-2,0.4-3.1,0.5c-2.9,0.3-5.7,0.4-8.6,0.4c0,0-0.8,0-1.4-0.1 c-3.1-0.8-5-4.9-3-7.8c0.7-1,1.8-1.8,2.9-2c0.9-0.2,1.7-0.2,2.6-0.2c2.7-0.1,5.3-0.2,8-0.5C429.3,385.7,430.1,385.7,430.6,385.7 L430.6,385.7z M390.4,383.8c3.3,0.5,6.5,0.9,9.8,1.2c0,0,0.8,0.1,1.3,0.3c3.1,1.1,4.3,5.5,2.1,8c-0.8,0.9-1.9,1.5-3.1,1.7 c-1.1,0.1-2.2-0.1-3.3-0.2c-2.7-0.3-5.4-0.7-8.1-1c0,0-0.7-0.1-1.2-0.3c-3.4-1.3-4.3-6.7-0.9-8.9c0.9-0.6,1.2-0.6,2.3-0.8 C389.6,383.8,390,383.8,390.4,383.8L390.4,383.8z M360.8,378.8c0.6,0.1,1.2,0.2,1.8,0.3c2.6,0.5,5.2,1,7.8,1.4 c0,0,0.8,0.1,1.4,0.4c2.9,1.3,4,5.7,1.5,8.2c-1.1,1.1-2.5,1.8-4.7,1.4c-3.2-0.6-6.4-1.2-9.6-1.8c0,0-0.8-0.2-1.2-0.4 c-2.2-1-3.5-3.8-2.7-6.1c0.4-1.2,1.2-2.2,2.2-2.8c0.9-0.6,1.3-0.5,2.3-0.7C360,378.8,360.4,378.8,360.8,378.8L360.8,378.8z M168,367.1c0.8,0.3,1.5,0.6,2.2,1.1c0.9,0.8,1.5,2,1.7,3.1c0.2,1.3,0,1.5-0.5,3c-0.8,2.3-1.1,4.8-1,7.3c0,0,0,0.8-0.1,1.3 c-0.7,3.5-5.7,5.5-8.6,2.5c-0.6-0.6-1-1.3-1.2-2.1c-0.3-1-0.2-2-0.2-2.9c0-3.4,0.7-6.9,1.8-10.1l0.6-1.1c0.3-0.3,0.5-0.6,0.8-0.9 c0.6-0.5,1.3-0.9,2.1-1.1C166.4,366.9,167.2,367,168,367.1L168,367.1z M331.2,372.9c3.3,0.7,6.6,1.4,9.9,2l1.2,0.4 c0.3,0.2,0.7,0.4,1,0.7c2.8,2.3,2.1,7.6-1.8,8.8c-1.5,0.4-3.2-0.1-4.8-0.4c-2.4-0.5-4.8-1-7.2-1.5l-0.3-0.1c-1-0.3-1.3-0.3-2.2-1 c-2.2-1.8-2.4-5.5-0.3-7.5c0.6-0.6,1.3-1,2.1-1.2C329.6,372.8,330.4,372.8,331.2,372.9L331.2,372.9z M440.8,362.4 c0.4,0.2,0.8,0.3,1.1,0.5c1.1,0.6,1.9,1.6,2.3,2.9c0.1,0.2,0.1,0.2,0.1,0.3c1,2.9,1.7,5.8,2,8.9c0,0,0.1,1.1,0.1,2.2l-0.1,1.2 c-0.1,0.4-0.2,0.8-0.4,1.1c-1.7,3.2-7.1,3.6-8.9,0c-0.6-1.1-0.5-1.4-0.6-2.9c-0.1-2.6-0.7-5.1-1.6-7.5l0-0.1 c-0.2-1-0.4-1.3-0.2-2.4c0.2-1.6,1.3-3.1,2.8-3.8c1-0.5,1.3-0.4,2.4-0.5C440,362.3,440.4,362.3,440.8,362.4L440.8,362.4z M301.6,366.7c3.1,0.6,6.1,1.3,9.2,1.9l0.7,0.1c0.4,0.1,0.8,0.2,1.2,0.4c3.2,1.6,3.9,6.9,0.3,8.9c-0.7,0.4-1.5,0.6-2.3,0.7 c-1.7,0.1-3.7-0.6-5.6-1c-1.6-0.3-3.3-0.7-4.9-1l-0.6-0.1c-1-0.3-1.3-0.3-2.2-1c-2.2-1.8-2.4-5.5-0.3-7.5c0.6-0.6,1.3-1,2.1-1.2 C299.9,366.6,300.8,366.6,301.6,366.7L301.6,366.7z M271.8,360.8c3.2,0.6,6.4,1.2,9.6,1.8l0.4,0.1c0.4,0.1,0.8,0.2,1.2,0.4 c3.3,1.5,3.9,6.9,0.4,8.9c-1.2,0.7-2.4,0.8-4.5,0.4c-2.8-0.5-5.6-1.1-8.4-1.6l-0.5-0.1c-0.4-0.1-0.8-0.2-1.2-0.4 c-3.3-1.5-4-6.8-0.5-8.9c0.9-0.6,1.3-0.5,2.3-0.7C271,360.7,271.4,360.8,271.8,360.8L271.8,360.8z M241.7,355.7 c3.3,0.5,6.5,1,9.7,1.5c0,0,0.8,0.1,1.5,0.4c3.3,1.4,4.2,6.7,0.7,8.9c-1,0.6-2.1,0.9-3.8,0.7c-0.4-0.1-0.8-0.1-1.1-0.2 c-2.6-0.4-5.3-0.8-7.9-1.2l-0.5-0.1c-1-0.3-1.4-0.3-2.2-0.9c-2.2-1.6-2.8-5.3-0.7-7.5c0.6-0.6,1.2-1.1,2-1.3 C240.1,355.7,240.9,355.7,241.7,355.7L241.7,355.7z M191.5,352.8c0.4,0.1,0.8,0.2,1.2,0.3c3.3,1.4,4.2,6.7,0.7,8.9 c-1,0.6-2.3,0.8-3.5,0.9c-2.7,0.3-5.5,0.6-8.2,1.1c0,0-0.7,0.1-1.3,0.1c-3.2-0.1-5.8-3.8-4.4-7c0.5-1.1,1.4-2.1,2.5-2.6 c0.9-0.4,2-0.5,3-0.7c2.8-0.5,5.7-0.8,8.5-1.1C190.1,352.7,190.9,352.8,191.5,352.8L191.5,352.8z M211.3,352.6 c3.4,0.2,6.7,0.4,10.1,0.7c0,0,0.8,0.1,1.3,0.3c3.4,1.2,4.6,6.5,1.3,8.8c-1,0.7-2.2,0.9-3.4,1c-0.7,0-1.4-0.1-2.1-0.2 c-2.5-0.2-5.1-0.4-7.7-0.5c0,0-0.8-0.1-1.3-0.2c-3.4-1-4.9-6.2-1.7-8.8c0.6-0.5,1.4-0.9,2.2-1 C210.4,352.6,210.8,352.6,211.3,352.6L211.3,352.6z M425.5,336.2c1,0.4,1.3,0.4,2.2,1.1c1,0.9,1.6,2,2.4,3.1 c1.4,2,2.8,4.1,4.2,6.2c0,0,0.4,0.7,0.6,1.2c1.2,3.4-2.1,7.6-6.1,6.5c-1.7-0.5-2.8-1.9-3.8-3.4c-1.5-2.3-3.1-4.6-4.7-6.8l-0.6-1.1 c-0.3-1-0.4-1.3-0.3-2.4c0.2-1.6,1.2-3.1,2.6-3.9c1-0.5,1.3-0.5,2.3-0.6C424.7,336.1,425.1,336.2,425.5,336.2L425.5,336.2z M407,312c1,0.3,1.3,0.3,2.2,1c0.5,0.4,0.7,0.7,1.1,1.1c1.7,2.3,3.5,4.5,5.2,6.8l0.7,0.9c0.2,0.3,0.5,0.7,0.6,1 c1.5,3.3-1.6,7.7-5.6,7c-0.8-0.2-1.6-0.5-2.2-1c-0.3-0.3-0.6-0.6-0.9-0.9c-2-2.6-4-5.2-6-7.8l-0.2-0.3c-0.5-0.9-0.8-1.1-1-2.2 c-0.3-2,0.6-4.2,2.4-5.2c0.9-0.6,1.3-0.5,2.3-0.7C406.2,312,406.6,312,407,312L407,312z M399.1,300.1c0,1.1,0.1,1.4-0.3,2.4 c-1.1,2.9-5.4,4.3-8.1,2c-0.6-0.5-0.9-1.1-1.3-1.7c0,0,0.1,0.1,0.1,0.1c-1.8-2.5-3.5-5.1-5.1-7.7c0,0-0.4-0.7-0.6-1.3 c-1.1-3.4,2.3-7.6,6.2-6.4c1.4,0.4,2.4,1.5,3.2,2.7l0.2,0.3c1.6,2.5,3.3,5,5,7.4l-0.1-0.1l0.6,1.1 C398.9,299.3,399,299.7,399.1,300.1L399.1,300.1z M377,259.9c0.8,0.2,1.6,0.5,2.2,0.9c0.7,0.5,1.2,1.1,1.5,1.9 c0.2,0.5,0.4,1,0.5,1.5c0.6,2.8,1.5,5.6,2.6,8.2c0,0,0.3,0.7,0.4,1.3c0.5,3.6-3.7,7-7.3,5.2c-1.6-0.8-2.5-2.7-3.1-4.5 c-1-2.8-1.9-5.7-2.5-8.6l-0.1-1.2c0.1-0.8,0.3-1.6,0.7-2.3c0.6-1.1,1.6-1.9,2.8-2.3C375.3,259.8,376.2,259.8,377,259.9L377,259.9z M379.6,234.8l9.3,4.7c-0.3,0.6-0.5,0.9-1.3,1.6c-1.9,1.9-3.6,4-4.9,6.4c0,0-0.4,0.7-0.7,1c-2.4,2.7-7.7,1.9-8.7-2.1 c-0.2-0.8-0.2-1.6,0-2.4c0.2-0.9,0.7-1.8,1.2-2.6C376,239,377.7,236.8,379.6,234.8L379.6,234.8z" style="fill: rgb(248, 217, 106);"/>
      <path class="st119" d="M331.3,363.1c17.1,8.4,19.6,19.4,5.5,24.6c-14.1,5.1-39.3,2.4-56.4-6c-17.1-8.4-19.6-19.4-5.5-24.6 C288.9,352,314.2,354.7,331.3,363.1L331.3,363.1z" style="fill: rgb(248, 217, 106);"/>
      <path class="st121" d="M316.1,92.7c43.4-21.7,78.6,1.1,78.6,51c0,49.8-44.5,132.6-78.6,190.2c-34.1-23.5-78.6-61.7-78.6-111.6 S272.7,114.4,316.1,92.7L316.1,92.7L316.1,92.7z" style="fill: rgb(248, 217, 106);"/>
      <path class="st122" d="M316.1,333.9l-25.4-12.7c-34.1-23.5-78.6-61.7-78.6-111.6S247.3,101.7,290.7,80 c19.7-9.9,37.8-10.5,51.6-3.6l0,0l25.4,12.7l0,0c-13.8-6.9-31.9-6.3-51.6,3.6c-43.4,21.7-78.6,79.8-78.6,129.6 S282,310.5,316.1,333.9L316.1,333.9z" style="fill: rgb(1, 87, 153);"/>
      <path class="st123" d="M321.6,246.8c-2,3.6-4.4,6.1-7.1,7.4c-2.7,1.3-5.1,1.2-7.1-0.5c-2-1.7-3-4.3-3-8c0-3.6,1-7.3,3-10.9 c2-3.6,4.4-6.1,7.1-7.4c2.7-1.3,5.1-1.2,7.1,0.5c2,1.7,3,4.3,3,8C324.6,239.6,323.6,243.2,321.6,246.8L321.6,246.8z M297.8,163.9 c-0.7-5.1,0.7-11.5,3.9-17.3c3.2-5.9,7.9-10.7,12.8-13.2c0,0,0,0,0,0c4.9-2.5,9.6-2.4,12.8,0.2c3.2,2.6,4.6,7.5,3.9,13.4 c-2.3,18.4-5.3,43-7,56.5c-0.7,5.7-4.8,11.8-9.6,14.2c-0.1,0-0.1,0.1-0.2,0.1c-4.8,2.4-8.8,0.5-9.6-4.5 C303.2,201.4,300.1,179.9,297.8,163.9L297.8,163.9z" style="fill: rgb(248, 217, 106);"/>
      <path class="st124" d="M333.4,252.7c-2,3.6-4.4,6.1-7.1,7.4c-2.7,1.3-5.1,1.2-7.1-0.5c-2-1.7-3-4.3-3-8c0-3.6,1-7.3,3-10.9 c2-3.6,4.4-6.1,7.1-7.4c2.7-1.3,5.1-1.2,7.1,0.5c2,1.7,3,4.3,3,8C336.4,245.5,335.4,249.1,333.4,252.7L333.4,252.7z M309.7,169.8 c-0.7-5.1,0.7-11.5,3.9-17.3c3.2-5.9,7.9-10.7,12.8-13.2l0,0c4.9-2.5,9.6-2.4,12.8,0.2c3.2,2.6,4.6,7.5,3.9,13.4 c-2.3,18.4-5.3,43-7,56.5c-0.7,5.7-4.8,11.8-9.6,14.2c-0.1,0-0.1,0.1-0.2,0.1c-4.8,2.4-8.8,0.5-9.6-4.5 C315,207.3,311.9,185.9,309.7,169.8L309.7,169.8z" style="fill: rgb(8, 43, 84);"/>
      <path class="st120" d="M320.4,260.5L320.4,260.5l-6.5-3.3h0c-0.4-0.2-0.8-0.5-1.2-0.8c-2-1.7-3-4.3-3-8c0-3.6,1-7.3,3-10.9 c2-3.6,4.4-6.1,7.1-7.4c2.2-1,4.1-1.2,5.8-0.4l0,0l0,0c0.1,0,0.1,0.1,0.2,0.1l6.3,3.2l0,0c-1.7-0.8-3.6-0.7-5.8,0.4 c-2.7,1.3-5.1,3.8-7.1,7.4c-2,3.6-3,7.2-3,10.9c0,3.6,1,6.3,3,8C319.6,260,320,260.2,320.4,260.5L320.4,260.5z M319.6,224l-6-3 c-0.2-0.1-0.3-0.2-0.5-0.2l0,0l0,0c-1.5-0.9-2.6-2.5-2.9-4.8c-1.7-11.8-4.7-33.3-7-49.3c-0.7-5.1,0.7-11.5,3.9-17.3 c3.2-5.9,7.9-10.7,12.8-13.2c0,0,0,0,0,0c4.2-2.1,8.1-2.4,11.2-0.9l0,0l6.5,3.3l0,0c-3.1-1.5-7-1.2-11.2,0.9l0,0 c-4.9,2.5-9.6,7.3-12.8,13.2c-3.2,5.9-4.6,12.2-3.9,17.3c2.3,16,5.3,37.5,7,49.3C317,221.5,318.1,223.1,319.6,224L319.6,224z" style="fill: rgb(1, 86, 153);"/>
    </g>
  </g>
</svg>